<?xml version="1.0" encoding="UTF-8"?>
<svg width="174px" height="68px" viewBox="0 0 174 68" version="1.1" xmlns="http://www.w3.org/2000/svg" xmlns:xlink="http://www.w3.org/1999/xlink">
    <!-- Generator: Sketch 50.2 (55047) - http://www.bohemiancoding.com/sketch -->
    <title>dcexplode</title>
    <desc>Created with Sketch.</desc>
    <defs></defs>
    <g id="dcexplode" stroke="none" stroke-width="1" fill="none" fill-rule="evenodd">
        <g id="Group-2" transform="translate(0.000000, 9.000000)">
            <g id="Workshop-Lockup" transform="translate(0.000000, 6.454545)">
                <g id="Group">
                    <path d="M4.08388005,13.703982 L5.02150558,13.703982 C5.72993729,13.703982 6.36196003,13.5940764 6.91759274,13.3742621 C7.47322546,13.1544478 7.94203353,12.8522076 8.32403103,12.4675325 C8.70602852,12.0828574 8.99773132,11.6260625 9.19914818,11.0971343 C9.40056504,10.568206 9.50127196,9.98776746 9.50127196,9.35580122 C9.50127196,8.73757338 9.39709239,8.16056938 9.18873012,7.62477192 C8.98036785,7.08897446 8.6851924,6.62874508 8.3031949,6.24406998 C7.92119741,5.85939488 7.45238934,5.55715469 6.89675662,5.33734035 C6.3411239,5.117526 5.71604647,5.00762048 5.02150558,5.00762048 L4.08388005,5.00762048 L4.08388005,13.703982 Z M0,1.58677686 L6.04247559,1.58677686 C7.11206857,1.58677686 8.11566511,1.79971881 9.05329532,2.2256091 C9.99092553,2.65149939 10.8104715,3.21819975 11.5119578,3.92572717 C12.2134441,4.63325458 12.7655958,5.45754601 13.1684296,6.39862617 C13.5712633,7.33970633 13.7726771,8.32542149 13.7726771,9.35580122 C13.7726771,10.3724426 13.5747359,11.3512886 13.1788476,12.2923688 C12.7829593,13.2334489 12.2342802,14.0611749 11.5327939,14.7755715 C10.8313076,15.4899682 10.0117617,16.0601031 9.07413144,16.4859933 C8.13650123,16.9118836 7.12595939,17.1248256 6.04247559,17.1248256 L0,17.1248256 L0,1.58677686 Z M22.586357,10.3037458 C22.4613396,9.78168677 22.2043633,9.36267197 21.8154204,9.04668885 C21.4264775,8.73070573 20.9541968,8.57271654 20.3985641,8.57271654 C19.8151497,8.57271654 19.3393964,8.72383663 18.9712897,9.02608136 C18.603183,9.32832608 18.3705153,9.75420998 18.2732796,10.3037458 L22.586357,10.3037458 Z M18.169099,12.4675325 C18.169099,14.0749249 18.9330825,14.878609 20.4610725,14.878609 C21.2806307,14.878609 21.8987628,14.5488924 22.3154874,13.8894494 L25.9618089,13.8894494 C25.2255955,16.3074072 23.3850897,17.5163679 20.4402363,17.5163679 C19.5373332,17.5163679 18.7108419,17.3824206 17.9607377,17.1145218 C17.2106336,16.8466231 16.5681929,16.4653883 16.0333964,15.9708061 C15.4985999,15.4762238 15.0853543,14.8854816 14.7936471,14.1985618 C14.5019399,13.5116419 14.3560885,12.7423033 14.3560885,11.8905227 C14.3560885,11.0112653 14.4949946,10.2178848 14.772811,9.51035741 C15.0506273,8.80282999 15.4465097,8.20178416 15.96047,7.70720189 C16.4744302,7.21261962 17.096035,6.83138483 17.8253029,6.5634861 C18.5545709,6.29558737 19.3775895,6.16164001 20.2943835,6.16164001 C21.1972866,6.16164001 22.0098873,6.29558737 22.7322098,6.5634861 C23.4545324,6.83138483 24.0657192,7.21948871 24.5657886,7.72780938 C25.0658581,8.23613005 25.4478498,8.85778317 25.7117754,9.59278738 C25.9757009,10.3277916 26.1076617,11.1555176 26.1076617,12.0759901 L26.1076617,12.4675325 L18.169099,12.4675325 Z M34.0878967,9.27337126 C33.3933558,8.91617295 32.7127159,8.73757647 32.0459566,8.73757647 C31.6986862,8.73757647 31.4174013,8.80626743 31.2020937,8.94365139 C30.986786,9.08103535 30.8791338,9.26650093 30.8791338,9.50005367 C30.8791338,9.62369923 30.896497,9.72330111 30.9312241,9.79886229 C30.9659511,9.87442348 31.0423495,9.94654897 31.1604214,10.015241 C31.2784934,10.0839329 31.452126,10.1457548 31.6813245,10.2007084 C31.910523,10.255662 32.2126437,10.3243529 32.5876958,10.4067833 C33.6295072,10.6128592 34.4073813,10.9803558 34.9213416,11.5092841 C35.4353018,12.0382124 35.6922781,12.7148182 35.6922781,13.539122 C35.6922781,14.1573499 35.5672626,14.7137466 35.3172279,15.2083289 C35.0671932,15.7029111 34.7199279,16.1184914 34.2754218,16.4550821 C33.8309156,16.7916728 33.2961271,17.0526984 32.6710403,17.2381668 C32.0459535,17.4236351 31.3583683,17.5163679 30.6082642,17.5163679 C29.1636191,17.5163679 27.7398316,17.1110913 26.336859,16.3005259 L27.7120431,13.662767 C28.7677453,14.3771636 29.7678692,14.7343566 30.7124448,14.7343566 C31.0597152,14.7343566 31.3444727,14.6587965 31.5667258,14.5076741 C31.7889789,14.3565518 31.9001038,14.1642171 31.9001038,13.9306644 C31.9001038,13.7932804 31.8827405,13.6799403 31.8480135,13.5906408 C31.8132864,13.5013412 31.7403607,13.418912 31.6292342,13.3433509 C31.5181076,13.2677897 31.354893,13.1990987 31.1395853,13.1372759 C30.9242776,13.0754532 30.6429928,13.0101968 30.2957223,12.9415048 C29.1288936,12.707952 28.3128203,12.3610627 27.8474779,11.9008264 C27.3821355,11.4405902 27.1494678,10.8051989 27.1494678,9.99463347 C27.1494678,9.40388242 27.2605927,8.87152754 27.4828458,8.39755286 C27.7050989,7.92357818 28.0245829,7.52173611 28.4413074,7.1920146 C28.8580319,6.86229308 29.3615665,6.60813656 29.9519263,6.4295374 C30.5422861,6.25093825 31.1986174,6.16164001 31.9209399,6.16164001 C33.1016594,6.16164001 34.2476347,6.38832015 35.3589002,6.84168724 L34.0878967,9.27337126 Z M40.1303722,6.55318235 L40.1303722,34.1157025 L36.359034,34.1157025 L36.359034,6.55318235 L40.1303722,6.55318235 Z M44.9643526,11.7874852 C44.9643526,12.1309452 45.0268604,12.4503581 45.1518777,12.7457336 C45.2768951,13.0411091 45.4470551,13.2987002 45.6623627,13.5185145 C45.8776704,13.7383289 46.1346467,13.9100563 46.4332993,14.0337018 C46.7319519,14.1573474 47.0549085,14.2191693 47.402179,14.2191693 C47.7355586,14.2191693 48.05157,14.1573474 48.3502226,14.0337018 C48.6488752,13.9100563 48.9058514,13.7383289 49.1211591,13.5185145 C49.3364668,13.2987002 49.5100994,13.0411091 49.6420622,12.7457336 C49.7740249,12.4503581 49.8400053,12.1378142 49.8400053,11.8080927 C49.8400053,11.4646328 49.7740249,11.1486544 49.6420622,10.8601481 C49.5100994,10.5716418 49.3329941,10.3174853 49.110741,10.0976709 C48.888488,9.87785658 48.628039,9.7061292 48.3293864,9.58248363 C48.0307339,9.45883806 47.7216678,9.39701621 47.402179,9.39701621 C47.0687994,9.39701621 46.7562606,9.46227261 46.4645535,9.59278738 C46.1728463,9.72330214 45.91587,9.89502952 45.6936169,10.1079747 C45.4713638,10.3209198 45.2942586,10.5716418 45.1622958,10.8601481 C45.030333,11.1486544 44.9643526,11.4577637 44.9643526,11.7874852 Z M53.4238185,6.55318235 L53.4238185,16.4035634 C53.4238185,16.9943144 53.3890919,17.5232348 53.3196378,17.9903402 C53.2501837,18.4574457 53.1529495,18.8695914 53.0279321,19.2267897 C52.8612423,19.6801568 52.6007934,20.1026062 52.2465775,20.4941505 C51.8923617,20.8856948 51.4652254,21.225715 50.965156,21.5142213 C50.4650865,21.8027276 49.8990442,22.0294078 49.267012,22.1942685 C48.6349798,22.3591293 47.9508672,22.4415584 47.2146539,22.4415584 C46.3812048,22.4415584 45.6172213,22.338522 44.9226804,22.1324461 C44.2281395,21.9263701 43.6204253,21.6413027 43.0995196,21.2772352 C42.578614,20.9131677 42.1514777,20.4872838 41.8180981,19.9995707 C41.4847185,19.5118576 41.2624687,18.9795027 41.1513422,18.4024901 L45.4019112,18.4024901 C45.6658367,19.1031483 46.263133,19.4534721 47.1938178,19.4534721 C47.9855944,19.4534721 48.5933085,19.2336611 49.0169785,18.7940324 C49.4406484,18.3544037 49.6524802,17.7430543 49.6524802,16.9599657 L49.6524802,15.9501986 C49.3746639,16.2112281 49.1072696,16.4276046 48.8502895,16.5993345 C48.5933094,16.7710645 48.3328605,16.911881 48.0689349,17.0217881 C47.8050094,17.1316953 47.5271972,17.2106899 47.23549,17.2587743 C46.9437828,17.3068587 46.6242988,17.3309005 46.2770284,17.3309005 C45.5130334,17.3309005 44.8115576,17.2003877 44.17258,16.9393582 C43.5336023,16.6783286 42.9814506,16.3142666 42.5161082,15.8471611 C42.0507658,15.3800556 41.68961,14.8202244 41.4326298,14.1676505 C41.1756497,13.5150767 41.0471616,12.7903872 41.0471616,11.9935602 C41.0471616,11.1829948 41.1860677,10.4308288 41.463884,9.73703982 C41.7417004,9.0432508 42.1202195,8.43877042 42.5994527,7.92358055 C43.0786859,7.40839068 43.6482009,7.00311407 44.3080148,6.70773854 C44.9678286,6.41236302 45.6866677,6.26467747 46.4645535,6.26467747 C47.7286179,6.26467747 48.7912495,6.73177595 49.6524802,7.66598691 L49.6524802,6.55318235 L53.4238185,6.55318235 Z M54.7364941,6.55318235 L58.5078323,6.55318235 L58.5078323,7.89266931 C59.0217926,7.27444147 59.5426905,6.85886121 60.0705415,6.64591607 C60.5983926,6.43297092 61.2165248,6.32649995 61.9249565,6.32649995 C62.6750606,6.32649995 63.3175013,6.44670911 63.8522978,6.68713105 C64.3870943,6.92755299 64.8420118,7.2675732 65.2170639,7.70720189 C65.5226619,8.0644002 65.731021,8.46280772 65.8421475,8.90243641 C65.9532741,9.34206509 66.0088365,9.84350904 66.0088365,10.4067833 L66.0088365,20.7311366 L62.2374983,20.7311366 L62.2374983,11.7874852 C62.2374983,11.2654262 62.1992991,10.8429768 62.1228996,10.5201245 C62.0465001,10.1972722 61.9110667,9.93968112 61.7165952,9.74734357 C61.5499054,9.58248281 61.3623822,9.46570819 61.1540199,9.39701621 C60.9456577,9.32832422 60.7234079,9.29397875 60.487264,9.29397875 C59.8482864,9.29397875 59.3586424,9.48287887 59.0183174,9.86068477 C58.6779923,10.2384907 58.5078323,10.7777146 58.5078323,11.4783729 L58.5078323,17.1248256 L54.7364941,17.1248256 L54.7364941,6.55318235 Z" id="Design" fill="#300065"></path>
                    <path d="M35.0463884,23.6944382 C34.104907,22.5079235 32.941918,21.914675 31.5573865,21.914675 C30.9481927,21.914675 30.3840046,22.0290362 29.8648053,22.2577619 C29.345606,22.4864876 28.8991013,22.797407 28.5252778,23.1905294 C28.1514543,23.5836517 27.8572458,24.0518177 27.6426434,24.5950413 C27.428041,25.1382649 27.3207414,25.7243659 27.3207414,26.3533616 C27.3207414,26.9966528 27.428041,27.5899012 27.6426434,28.1331249 C27.8572458,28.6763485 28.1549156,29.1480882 28.5356617,29.5483583 C28.9164079,29.9486283 29.3629126,30.2631215 29.8751892,30.4918472 C30.3874659,30.720573 30.9412701,30.8349341 31.5366187,30.8349341 C32.8380783,30.8349341 34.0079898,30.2631283 35.0463884,29.1194997 L35.0463884,34.0942595 L34.631031,34.2443601 C34.0079919,34.4730858 33.4264974,34.6410537 32.8865301,34.7482689 C32.3465628,34.8554841 31.8135262,34.9090909 31.2874043,34.9090909 C30.2074697,34.9090909 29.1725479,34.6982375 28.1826079,34.2765245 C27.1926679,33.8548114 26.3204262,33.2615629 25.5658565,32.4967612 C24.8112869,31.7319595 24.2055635,30.8242179 23.7486681,29.773509 C23.2917727,28.7228002 23.0633284,27.5756149 23.0633284,26.3319187 C23.0633284,25.0882225 23.2883114,23.9481848 23.7382841,22.9117713 C24.1882569,21.8753578 24.790519,20.9819113 25.5450887,20.231405 C26.2996583,19.4808986 27.1753614,18.8947977 28.172224,18.4730847 C29.1690867,18.0513716 30.2143923,17.8405182 31.3081721,17.8405182 C31.9312113,17.8405182 32.5438573,17.9084201 33.1461285,18.044226 C33.7483996,18.1800319 34.3818133,18.3908853 35.0463884,18.6767925 L35.0463884,23.6944382 Z M39.7814623,16.661157 L39.7814623,24.8523565 C40.293739,24.2090654 40.8129305,23.7766372 41.3390524,23.5550592 C41.8651744,23.3334811 42.4812817,23.2226938 43.1873927,23.2226938 C44.5303882,23.2226938 45.5445423,23.6050889 46.2298854,24.3698906 C46.9152285,25.1346922 47.2578949,26.1675164 47.2578949,27.468394 L47.2578949,34.4587894 L43.4989107,34.4587894 L43.4989107,28.9050704 C43.4989107,28.3475514 43.4573754,27.8972543 43.3743035,27.5541657 C43.2912316,27.2110771 43.1527806,26.946617 42.9589462,26.7607773 C42.6266586,26.4605748 42.2251505,26.3104758 41.7544098,26.3104758 C41.1175253,26.3104758 40.6294853,26.507034 40.2902751,26.9001564 C39.9510649,27.2932787 39.7814623,27.8543631 39.7814623,28.5834264 L39.7814623,34.4587894 L39.7814623,16.661157 Z M52.0552724,28.9265133 C52.0552724,29.2838973 52.1175754,29.6162594 52.2421832,29.9236096 C52.366791,30.2309598 52.5363936,30.4989937 52.750996,30.7277195 C52.9655984,30.9564452 53.2217328,31.1351345 53.5194071,31.2637927 C53.8170814,31.3924509 54.1389801,31.4567791 54.485113,31.4567791 C54.8174005,31.4567791 55.1323767,31.3924509 55.430051,31.2637927 C55.7277253,31.1351345 55.9838597,30.9564452 56.1984621,30.7277195 C56.4130645,30.4989937 56.5861283,30.2345336 56.7176588,29.934331 C56.8491893,29.6341285 56.9149536,29.3124878 56.9149536,28.9693992 C56.9149536,28.6263105 56.8491893,28.301096 56.7176588,27.9937458 C56.5861283,27.6863956 56.4130645,27.4183617 56.1984621,27.1896359 C55.9838597,26.9609102 55.7277253,26.7822209 55.430051,26.6535627 C55.1323767,26.5249044 54.8174005,26.4605763 54.485113,26.4605763 C54.1389801,26.4605763 53.8170814,26.5249044 53.5194071,26.6535627 C53.2217328,26.7822209 52.9655984,26.9609102 52.750996,27.1896359 C52.5363936,27.4183617 52.366791,27.679248 52.2421832,27.9723029 C52.1175754,28.2653577 52.0552724,28.5834247 52.0552724,28.9265133 Z M56.2711497,23.458566 L60.0509017,23.458566 L60.0509017,34.4587894 L56.2711497,34.4587894 L56.2711497,33.2365423 C55.4681214,34.2801035 54.3812805,34.8018763 53.0105943,34.8018763 C52.2352567,34.8018763 51.5222337,34.655351 50.8715039,34.3622962 C50.2207741,34.0692413 49.6531247,33.6582559 49.1685387,33.1293277 C48.6839527,32.6003994 48.3066735,31.9785606 48.0366899,31.2637927 C47.7667063,30.5490248 47.6317165,29.7699394 47.6317165,28.9265133 C47.6317165,28.1402686 47.763245,27.3933473 48.026306,26.685727 C48.2893669,25.9781068 48.6562623,25.3598418 49.127003,24.8309136 C49.5977437,24.3019853 50.1584705,23.8838523 50.8092003,23.5765021 C51.4599301,23.2691519 52.1798757,23.1154791 52.9690586,23.1154791 C54.2982088,23.1154791 55.3988948,23.5943664 56.2711497,24.5521555 L56.2711497,23.458566 Z M66.0035447,26.6964485 L66.0035447,34.4587894 L62.2445605,34.4587894 L62.2445605,26.6964485 L60.9984884,26.6964485 L60.9984884,23.458566 L62.2445605,23.458566 L62.2445605,20.1563547 L66.0035447,20.1563547 L66.0035447,23.458566 L68.1426351,23.458566 L68.1426351,26.6964485 L66.0035447,26.6964485 Z M75.5437313,26.2890328 C74.8514656,25.9173535 74.1730553,25.7315166 73.5084802,25.7315166 C73.1623473,25.7315166 72.8819839,25.8029924 72.6673815,25.9459459 C72.4527792,26.0888995 72.3454796,26.281884 72.3454796,26.5249051 C72.3454796,26.6535633 72.362786,26.7572031 72.3973992,26.8358276 C72.4320125,26.914452 72.5081606,26.9895015 72.6258458,27.0609783 C72.743531,27.1324551 72.9165948,27.1967833 73.1450425,27.2539647 C73.3734902,27.3111461 73.6746213,27.3826219 74.0484448,27.468394 C75.0868434,27.6828244 75.8621694,28.0652195 76.374446,28.6155908 C76.8867227,29.1659621 77.1428571,29.8699979 77.1428571,30.7277195 C77.1428571,31.3710106 77.0182512,31.9499639 76.7690355,32.4645968 C76.5198198,32.9792297 76.1736922,33.4116578 75.7306421,33.7618941 C75.287592,34.1121304 74.7545554,34.3837381 74.1315162,34.5767255 C73.5084771,34.7697128 72.8231443,34.866205 72.0754973,34.866205 C70.6355846,34.866205 69.2164611,34.4444983 67.8180843,33.6010721 L69.1887636,30.856377 C70.2410075,31.5997357 71.2378552,31.9714094 72.1793366,31.9714094 C72.5254695,31.9714094 72.8092942,31.8927861 73.0308192,31.7355372 C73.2523443,31.5782882 73.3631051,31.3781562 73.3631051,31.1351351 C73.3631051,30.9921816 73.3457987,30.8742466 73.3111855,30.7813268 C73.2765722,30.688407 73.2038854,30.6026361 73.0931228,30.5240116 C72.9823603,30.4453871 72.8196803,30.3739114 72.6050779,30.3095823 C72.3904756,30.2452532 72.1101121,30.1773513 71.7639793,30.1058745 C70.6009728,29.8628534 69.7875728,29.501901 69.3237547,29.0230065 C68.8599367,28.544112 68.6280312,27.8829616 68.6280312,27.0395354 C68.6280312,26.424835 68.738792,25.8708982 68.9603171,25.3777083 C69.1818421,24.8845184 69.5002796,24.4663855 69.915639,24.1232969 C70.3309984,23.7802082 70.8328836,23.5157481 71.4213094,23.3299084 C72.0097353,23.1440688 72.6639166,23.0511503 73.383873,23.0511503 C74.5607247,23.0511503 75.7029461,23.2870202 76.8105713,23.758767 L75.5437313,26.2890328 Z" id="Chats" fill="#300065"></path>
                    <path d="M35.7879234,1.98347107 C35.7879234,1.71122859 35.8399025,1.45519485 35.9438621,1.21536218 C36.0478217,0.975529509 36.1907641,0.764868838 36.3726934,0.583373845 C36.5546228,0.401878853 36.7657876,0.259277783 37.0061942,0.155566359 C37.2466009,0.0518549344 37.5032474,0 37.7761414,0 C38.0490354,0 38.3056819,0.0518549344 38.5460885,0.155566359 C38.7864952,0.259277783 38.99766,0.401878853 39.1795894,0.583373845 C39.3615187,0.764868838 39.5044611,0.975529509 39.6084207,1.21536218 C39.7123803,1.45519485 39.7643594,1.71122859 39.7643594,1.98347107 C39.7643594,2.25571356 39.7123803,2.5117473 39.6084207,2.75157997 C39.5044611,2.99141264 39.3615187,3.20207331 39.1795894,3.3835683 C38.99766,3.5650633 38.7864952,3.70766437 38.5460885,3.81137579 C38.3056819,3.91508721 38.0490354,3.96694215 37.7761414,3.96694215 C37.5032474,3.96694215 37.2466009,3.91508721 37.0061942,3.81137579 C36.7657876,3.70766437 36.5546228,3.5650633 36.3726934,3.3835683 C36.1907641,3.20207331 36.0478217,2.99141264 35.9438621,2.75157997 C35.8399025,2.5117473 35.7879234,2.25571356 35.7879234,1.98347107 Z" id="Path" fill="#FFD219"></path>
                </g>
            </g>
            <path d="M95.3265306,20.0909091 L95.3265306,33.1818182" id="Line" stroke="#300065" stroke-width="1.10000002" stroke-linecap="square"></path>
            <path d="M102.489796,27.1818182 L89.2653061,27.1818182" id="Line" stroke="#300065" stroke-width="1.10000002" stroke-linecap="square"></path>
            <g id="emoji-yellow" transform="translate(137.755102, 25.000000) rotate(90.000000) translate(-137.755102, -25.000000) translate(113.510204, 1.000000)">
                <ellipse id="Oval" fill="#FF79C1" cx="24.244898" cy="24" rx="24.244898" ry="24"></ellipse>
                <g id="Group" transform="translate(24.465306, 24.000000) rotate(-90.000000) translate(-24.465306, -24.000000) translate(11.461224, 14.400000)" fill="#300065">
                    <path d="M0.190432653,16.6542545 C0.190432653,16.4500353 0.261844184,16.2301103 0.404669388,15.9944727 L4.52277551,9.70298182 L0.571297959,3.43505455 C0.412603288,3.18370783 0.333257143,2.94021936 0.333257143,2.70458182 C0.333257143,2.23330673 0.595099422,1.82487446 1.11879184,1.47927273 C1.64248425,1.133671 2.18203804,0.960872727 2.73746939,0.960872727 C3.2611618,0.960872727 3.63408869,1.16508887 3.85626122,1.57352727 L7.02220408,7.04029091 L10.1881469,1.57352727 C10.4103195,1.16508887 10.7832464,0.960872727 11.3069388,0.960872727 C11.8623701,0.960872727 12.4019239,1.133671 12.9256163,1.47927273 C13.4493087,1.82487446 13.711151,2.23330673 13.711151,2.70458182 C13.711151,2.94021936 13.6318049,3.18370783 13.4731102,3.43505455 L9.52163265,9.70298182 L13.6397388,15.9944727 C13.782564,16.2301103 13.8539755,16.4500353 13.8539755,16.6542545 C13.8539755,17.1255296 13.5802313,17.5457436 13.0327347,17.9149091 C12.4852381,18.2840746 11.9337824,18.4686545 11.378351,18.4686545 C10.9340059,18.4686545 10.6404252,18.3429831 10.4976,18.0916364 L7.02220408,12.2478545 L3.54680816,18.0916364 C3.38811349,18.3429831 3.09453275,18.4686545 2.66605714,18.4686545 C2.11062579,18.4686545 1.55917008,18.2840746 1.01167347,17.9149091 C0.464176854,17.5457436 0.190432653,17.1255296 0.190432653,16.6542545 Z" id="Path"></path>
                    <path d="M18.7858286,17.2433455 C18.7858286,16.1594128 19.1587555,15.6174545 19.9046204,15.6174545 C21.4598282,15.6174545 22.2374204,15.1618955 22.2374204,14.2507636 L22.2374204,5.10807273 C22.2374204,4.66821598 22.0271531,4.27549264 21.6066122,3.92989091 C21.1860714,3.58428918 20.6187464,3.41149091 19.9046204,3.41149091 C19.5713616,3.41149091 19.3015847,3.26618327 19.0952816,2.97556364 C18.8889786,2.684944 18.7858286,2.29614789 18.7858286,1.80916364 C18.7858286,0.756649283 19.3967939,0.2304 20.6187429,0.2304 C21.9359086,0.2304 23.153872,0.685959081 24.2726694,1.59709091 C25.3914668,2.50822274 25.9508571,3.67853831 25.9508571,5.10807273 L25.9508571,14.2507636 C25.9508571,15.0362221 25.7881975,15.7313424 25.4628735,16.3361455 C25.1375494,16.9409485 24.7130475,17.4161437 24.1893551,17.7617455 C23.6656627,18.1073472 23.1102397,18.3665446 22.5230694,18.5393455 C21.9358991,18.7121463 21.3328684,18.7985455 20.7139592,18.7985455 C19.9363553,18.7985455 19.4206054,18.6689468 19.1666939,18.4097455 C18.9127824,18.1505442 18.7858286,17.761748 18.7858286,17.2433455 Z" id="Path"></path>
                </g>
            </g>
        </g>
    </g>
</svg>