<?xml version="1.0" encoding="UTF-8"?>
<svg width="490px" height="113px" viewBox="0 0 490 113" version="1.1" xmlns="http://www.w3.org/2000/svg" xmlns:xlink="http://www.w3.org/1999/xlink">
    <!-- Generator: Sketch 48.1 (47250) - http://www.bohemiancoding.com/sketch -->
    <title>explodeconf</title>
    <desc>Created with Sketch.</desc>
    <defs></defs>
    <g id="Page-1" stroke="none" stroke-width="1" fill="none" fill-rule="evenodd">
        <g id="explodeconf">
            <path d="M172.456,44.928 L172.456,4.288 C172.456,3.30666176 172.882662,2.549336 173.736,2.016 C174.589338,1.482664 175.613327,1.216 176.808,1.216 L199.592,1.216 C200.573338,1.216 201.319997,1.6426624 201.832,2.496 C202.344003,3.3493376 202.6,4.35199424 202.6,5.504 C202.6,6.74133952 202.333336,7.7866624 201.8,8.64 C201.266664,9.4933376 200.530671,9.92 199.592,9.92 L182.44,9.92 L182.44,20.736 L192.04,20.736 C192.978671,20.736 193.714664,21.1199962 194.248,21.888 C194.781336,22.6560038 195.048,23.573328 195.048,24.64 C195.048,25.6213382 194.792003,26.4959962 194.28,27.264 C193.767997,28.0320038 193.021338,28.416 192.04,28.416 L182.44,28.416 L182.44,39.296 L199.592,39.296 C200.530671,39.296 201.266664,39.7226624 201.8,40.576 C202.333336,41.4293376 202.6,42.4746605 202.6,43.712 C202.6,44.8640058 202.344003,45.8666624 201.832,46.72 C201.319997,47.5733376 200.573338,48 199.592,48 L176.808,48 C175.613327,48 174.589338,47.733336 173.736,47.2 C172.882662,46.666664 172.456,45.9093382 172.456,44.928 Z M216.008,43.456 C216.008,42.9013306 216.199998,42.3040032 216.584,41.664 L227.656,24.576 L217.032,7.552 C216.605331,6.86932992 216.392,6.2080032 216.392,5.568 C216.392,4.2879936 217.095993,3.17867136 218.504,2.24 C219.912007,1.30132864 221.362659,0.832 222.856,0.832 C224.264007,0.832 225.266664,1.38666112 225.864,2.496 L234.376,17.344 L242.888,2.496 C243.485336,1.38666112 244.487993,0.832 245.896,0.832 C247.389341,0.832 248.839993,1.30132864 250.248,2.24 C251.656007,3.17867136 252.36,4.2879936 252.36,5.568 C252.36,6.2080032 252.146669,6.86932992 251.72,7.552 L241.096,24.576 L252.168,41.664 C252.552002,42.3040032 252.744,42.9013306 252.744,43.456 C252.744,44.7360064 252.008007,45.8773283 250.536,46.88 C249.063993,47.8826717 247.581341,48.384 246.088,48.384 C244.893327,48.384 244.104002,48.0426701 243.72,47.36 L234.376,31.488 L225.032,47.36 C224.605331,48.0426701 223.816006,48.384 222.664,48.384 C221.170659,48.384 219.688007,47.8826717 218.216,46.88 C216.743993,45.8773283 216.008,44.7360064 216.008,43.456 Z M268.712,44.928 L268.712,4.224 C268.712,3.41332928 269.05333,2.70933632 269.736,2.112 C270.41867,1.51466368 271.314661,1.216 272.424,1.216 L285.672,1.216 C290.237356,1.216 293.895986,2.39998816 296.648,4.768 C299.400014,7.13601184 300.776,10.8586413 300.776,15.936 L300.776,16.256 C300.776,21.3333587 299.336014,25.0773213 296.456,27.488 C293.575986,29.8986787 289.768024,31.104 285.032,31.104 L278.696,31.104 L278.696,44.928 C278.696,45.9093382 278.205338,46.666664 277.224,47.2 C276.242662,47.733336 275.06934,48 273.704,48 C272.33866,48 271.165338,47.733336 270.184,47.2 C269.202662,46.666664 268.712,45.9093382 268.712,44.928 Z M278.696,23.424 L285.032,23.424 C288.872019,23.424 290.792,21.290688 290.792,17.024 L290.792,16.32 C290.792,12.053312 288.872019,9.92 285.032,9.92 L278.696,9.92 L278.696,23.424 Z M317.128,44.928 L317.128,4.224 C317.128,3.24266176 317.618662,2.49600256 318.6,1.984 C319.581338,1.47199744 320.75466,1.216 322.12,1.216 C323.48534,1.216 324.658662,1.47199744 325.64,1.984 C326.621338,2.49600256 327.112,3.24266176 327.112,4.224 L327.112,39.296 L341.704,39.296 C342.600004,39.296 343.303997,39.7226624 343.816,40.576 C344.328003,41.4293376 344.584,42.4533274 344.584,43.648 C344.584,44.8426726 344.328003,45.8666624 343.816,46.72 C343.303997,47.5733376 342.600004,48 341.704,48 L321.48,48 C320.285327,48 319.261338,47.733336 318.408,47.2 C317.554662,46.666664 317.128,45.9093382 317.128,44.928 Z M359.4,33.28 L359.4,16.32 C359.4,11.1146406 360.829319,7.29601216 363.688,4.864 C366.546681,2.43198784 370.343976,1.216 375.08,1.216 C379.858691,1.216 383.677319,2.43198784 386.536,4.864 C389.394681,7.29601216 390.824,11.1146406 390.824,16.32 L390.824,33.28 C390.824,38.4853594 389.394681,42.3039878 386.536,44.736 C383.677319,47.1680122 379.858691,48.384 375.08,48.384 C370.343976,48.384 366.546681,47.1680122 363.688,44.736 C360.829319,42.3039878 359.4,38.4853594 359.4,33.28 Z M369.384,33.28 C369.384,37.546688 371.282648,39.68 375.08,39.68 C378.920019,39.68 380.84,37.546688 380.84,33.28 L380.84,16.32 C380.84,12.053312 378.920019,9.92 375.08,9.92 C371.282648,9.92 369.384,12.053312 369.384,16.32 L369.384,33.28 Z M409.224,44.992 L409.224,4.224 C409.224,3.41332928 409.629329,2.70933632 410.44,2.112 C411.250671,1.51466368 412.295994,1.216 413.576,1.216 L424.904,1.216 C429.682691,1.216 433.501319,2.43198784 436.36,4.864 C439.218681,7.29601216 440.648,11.1146406 440.648,16.32 L440.648,32.896 C440.648,38.1013594 439.218681,41.9199878 436.36,44.352 C433.501319,46.7840122 429.682691,48 424.904,48 L413.576,48 C412.295994,48 411.250671,47.7013363 410.44,47.104 C409.629329,46.5066637 409.224,45.8026707 409.224,44.992 Z M419.208,39.296 L424.904,39.296 C428.744019,39.296 430.664,37.162688 430.664,32.896 L430.664,16.32 C430.664,12.053312 428.744019,9.92 424.904,9.92 L419.208,9.92 L419.208,39.296 Z M458.984,44.928 L458.984,4.288 C458.984,3.30666176 459.410662,2.549336 460.264,2.016 C461.117338,1.482664 462.141327,1.216 463.336,1.216 L486.12,1.216 C487.101338,1.216 487.847997,1.6426624 488.36,2.496 C488.872003,3.3493376 489.128,4.35199424 489.128,5.504 C489.128,6.74133952 488.861336,7.7866624 488.328,8.64 C487.794664,9.4933376 487.058671,9.92 486.12,9.92 L468.968,9.92 L468.968,20.736 L478.568,20.736 C479.506671,20.736 480.242664,21.1199962 480.776,21.888 C481.309336,22.6560038 481.576,23.573328 481.576,24.64 C481.576,25.6213382 481.320003,26.4959962 480.808,27.264 C480.295997,28.0320038 479.549338,28.416 478.568,28.416 L468.968,28.416 L468.968,39.296 L486.12,39.296 C487.058671,39.296 487.794664,39.7226624 488.328,40.576 C488.861336,41.4293376 489.128,42.4746605 489.128,43.712 C489.128,44.8640058 488.872003,45.8666624 488.36,46.72 C487.847997,47.5733376 487.101338,48 486.12,48 L463.336,48 C462.141327,48 461.117338,47.733336 460.264,47.2 C459.410662,46.666664 458.984,45.9093382 458.984,44.928 Z M171.944,97.28 L171.944,80.32 C171.944,75.1146406 173.362652,71.2960122 176.2,68.864 C179.037348,66.4319878 182.738644,65.216 187.304,65.216 C191.997357,65.216 195.847985,66.3466554 198.856,68.608 C201.864015,70.8693446 203.368,73.9839802 203.368,77.952 C203.368,79.7866758 202.984004,81.0346634 202.216,81.696 C201.447996,82.3573366 200.168009,82.688 198.376,82.688 C195.175984,82.688 193.512001,81.6853434 193.384,79.68 C193.255999,75.8399808 191.357352,73.92 187.688,73.92 C183.847981,73.92 181.928,76.053312 181.928,80.32 L181.928,97.28 C181.928,101.546688 183.869314,103.68 187.752,103.68 C188.946673,103.68 189.938663,103.488002 190.728,103.104 C191.517337,102.719998 192.082665,102.133337 192.424,101.344 C192.765335,100.554663 192.989333,99.9040026 193.096,99.392 C193.202667,98.8799974 193.298666,98.1760045 193.384,97.28 C193.554668,95.2746566 195.197318,94.272 198.312,94.272 C200.146676,94.272 201.447996,94.6026634 202.216,95.264 C202.984004,95.9253366 203.368,97.1733242 203.368,99.008 C203.368,103.146687 201.864015,106.410655 198.856,108.8 C195.847985,111.189345 191.997357,112.384 187.304,112.384 C182.738644,112.384 179.037348,111.168012 176.2,108.736 C173.362652,106.303988 171.944,102.485359 171.944,97.28 Z M219.912,97.28 L219.912,80.32 C219.912,75.1146406 221.341319,71.2960122 224.2,68.864 C227.058681,66.4319878 230.855976,65.216 235.592,65.216 C240.370691,65.216 244.189319,66.4319878 247.048,68.864 C249.906681,71.2960122 251.336,75.1146406 251.336,80.32 L251.336,97.28 C251.336,102.485359 249.906681,106.303988 247.048,108.736 C244.189319,111.168012 240.370691,112.384 235.592,112.384 C230.855976,112.384 227.058681,111.168012 224.2,108.736 C221.341319,106.303988 219.912,102.485359 219.912,97.28 Z M229.896,97.28 C229.896,101.546688 231.794648,103.68 235.592,103.68 C239.432019,103.68 241.352,101.546688 241.352,97.28 L241.352,80.32 C241.352,76.053312 239.432019,73.92 235.592,73.92 C231.794648,73.92 229.896,76.053312 229.896,80.32 L229.896,97.28 Z M269.736,108.928 L269.736,68.288 C269.736,67.3066618 270.226662,66.549336 271.208,66.016 C272.189338,65.482664 273.36266,65.216 274.728,65.216 C276.64801,65.216 278.066662,65.4933306 278.984,66.048 C279.901338,66.6026694 280.935994,67.9893222 282.088,70.208 L292.456,89.984 L292.456,68.224 C292.456,67.2426618 292.946662,66.4960026 293.928,65.984 C294.909338,65.4719974 296.08266,65.216 297.448,65.216 C298.81334,65.216 299.986662,65.4719974 300.968,65.984 C301.949338,66.4960026 302.44,67.2426618 302.44,68.224 L302.44,108.928 C302.44,109.909338 301.949338,110.666664 300.968,111.2 C299.986662,111.733336 298.81334,112 297.448,112 C294.71732,112 292.861338,111.104009 291.88,109.312 L279.72,87.168 L279.72,108.928 C279.72,109.909338 279.229338,110.666664 278.248,111.2 C277.266662,111.733336 276.09334,112 274.728,112 C273.36266,112 272.189338,111.733336 271.208,111.2 C270.226662,110.666664 269.736,109.909338 269.736,108.928 Z M321.352,108.928 L321.352,68.288 C321.352,67.3066618 321.778662,66.549336 322.632,66.016 C323.485338,65.482664 324.509327,65.216 325.704,65.216 L347.912,65.216 C348.893338,65.216 349.639997,65.6426624 350.152,66.496 C350.664003,67.3493376 350.92,68.3519942 350.92,69.504 C350.92,70.7413395 350.653336,71.7866624 350.12,72.64 C349.586664,73.4933376 348.850671,73.92 347.912,73.92 L331.336,73.92 L331.336,84.736 L341,84.736 C341.938671,84.736 342.674664,85.1199962 343.208,85.888 C343.741336,86.6560038 344.008,87.573328 344.008,88.64 C344.008,89.6213382 343.752003,90.4959962 343.24,91.264 C342.727997,92.0320038 341.981338,92.416 341,92.416 L331.336,92.416 L331.336,108.928 C331.336,109.909338 330.845338,110.666664 329.864,111.2 C328.882662,111.733336 327.70934,112 326.344,112 C324.97866,112 323.805338,111.733336 322.824,111.2 C321.842662,110.666664 321.352,109.909338 321.352,108.928 Z M359.528,107.456 C359.528,106.09066 359.997329,104.928005 360.936,103.968 C361.874671,103.007995 363.047993,102.528 364.456,102.528 C365.778673,102.528 366.919995,103.018662 367.88,104 C368.840005,104.981338 369.32,106.133327 369.32,107.456 C369.32,108.778673 368.840005,109.930662 367.88,110.912 C366.919995,111.893338 365.778673,112.384 364.456,112.384 C363.09066,112.384 361.928005,111.893338 360.968,110.912 C360.007995,109.930662 359.528,108.778673 359.528,107.456 Z" fill="#FFDF00" fill-rule="nonzero"></path>
            <path d="M0,1 L135,1 L135,112 L0,112 L0,1 Z M42.432,72.166 C42.432,73.2460054 43.0529938,74.2089958 44.295,75.055 C45.5370062,75.9010042 46.7879937,76.324 48.048,76.324 C49.0200049,76.324 49.6859982,76.0360029 50.046,75.46 L57.93,62.068 L65.814,75.46 C66.1380016,76.0360029 66.803995,76.324 67.812,76.324 C69.0720063,76.324 70.3229938,75.9010042 71.565,75.055 C72.8070062,74.2089958 73.428,73.2460054 73.428,72.166 C73.428,71.6979977 73.2660016,71.1940027 72.942,70.654 L63.6,56.236 L72.564,41.872 C72.9240018,41.2959971 73.104,40.7380027 73.104,40.198 C73.104,39.1179946 72.5100059,38.182004 71.322,37.39 C70.1339941,36.597996 68.9100063,36.202 67.65,36.202 C66.4619941,36.202 65.6160025,36.6699953 65.112,37.606 L57.93,50.134 L50.748,37.606 C50.2439975,36.6699953 49.3980059,36.202 48.21,36.202 C46.9499937,36.202 45.7260059,36.597996 44.538,37.39 C43.3499941,38.182004 42.756,39.1179946 42.756,40.198 C42.756,40.7380027 42.9359982,41.2959971 43.296,41.872 L52.26,56.236 L42.918,70.654 C42.5939984,71.1940027 42.432,71.6979977 42.432,72.166 Z M84.616,73.516 C84.616,74.7040059 84.9039971,75.594997 85.48,76.189 C86.0560029,76.783003 87.2259912,77.08 88.99,77.08 C90.394007,77.08 91.7619933,76.882002 93.094,76.486 C94.4260067,76.089998 95.6859941,75.496004 96.874,74.704 C98.0620059,73.911996 99.0249963,72.8230069 99.763,71.437 C100.501004,70.0509931 100.87,68.458009 100.87,66.658 L100.87,45.706 C100.87,42.4299836 99.6010127,39.7480104 97.063,37.66 C94.5249873,35.5719896 91.7620149,34.528 88.774,34.528 C86.0019861,34.528 84.616,35.7339879 84.616,38.146 C84.616,39.2620056 84.8499977,40.1529967 85.318,40.819 C85.7860023,41.4850033 86.3979962,41.818 87.154,41.818 C88.7740081,41.818 90.0609952,42.213996 91.015,43.006 C91.9690048,43.798004 92.446,44.697995 92.446,45.706 L92.446,66.658 C92.446,68.7460104 90.6820176,69.79 87.154,69.79 C85.4619915,69.79 84.616,71.0319876 84.616,73.516 Z" id="Combined-Shape" fill="#FF79C1"></path>
        </g>
    </g>
</svg>