<?xml version="1.0" encoding="utf-8"?>
<!-- Generator: Adobe Illustrator 15.0.0, SVG Export Plug-In . SVG Version: 6.00 Build 0)  -->
<!DOCTYPE svg PUBLIC "-//W3C//DTD SVG 1.1//EN" "http://www.w3.org/Graphics/SVG/1.1/DTD/svg11.dtd">
<svg version="1.1" id="Layer_1" xmlns="http://www.w3.org/2000/svg" xmlns:xlink="http://www.w3.org/1999/xlink" x="0px" y="0px"
	 width="512px" height="60.733px" viewBox="0 0 512 60.733" enable-background="new 0 0 512 60.733" xml:space="preserve">
<path fill="#FFFFFF" d="M0,46.159l30.255-30.254H0.407V1.066H57.4V14.5L27.063,44.836h31.558v14.851H0V46.159z"/>
<path fill="#FFFFFF" d="M64.767,59.688V1.066h54.916v14.431H84.348v7.051h33.3v15.087H84.364v7.624h35.319v14.429H64.767z"/>
<path fill="#FFFFFF" d="M144.703,29.925v29.763h-18.034V1.066h16.067l24.515,29.925V1.066h18.038v58.621h-16.234L144.703,29.925z"/>
<path fill="#FFFFFF" d="M192.666,1.066h37.138c14.102,0,20.826,7.707,20.826,17.957s-5.564,15.425-11.313,18.034l13.841,22.631
	H232.1l-12.213-20.005h-7.461v20.005h-19.76V1.066L192.666,1.066z M223.657,26.074c4.755,0,7.295-1.804,7.295-5.74
	c0-3.855-2.708-5.166-7.788-5.166h-10.738v10.906H223.657z"/>
<path fill="#FFFFFF" d="M257.277,59.688V1.066h54.925v14.431h-35.336v7.051h33.288v15.087h-33.29v7.624h35.334v14.429H257.277z"/>
<path fill="#FFFFFF" d="M363.771,48.207h-23.448l-4.43,11.481h-19.995l24.425-58.621h23.777l24.426,58.621h-20.333L363.771,48.207z
	 M358.28,33.775l-6.232-16.316l-6.231,16.316H358.28z"/>
<path fill="#FFFFFF" d="M384.838,30.336C384.838,11.643,397.458,0,417.223,0c17.384,0,28.858,8.854,30.991,24.352h-20.253
	c-0.904-5.821-5.247-9.184-10.657-9.184c-7.295,0-12.298,5.984-12.298,15.168c0,9.364,5.003,15.168,12.298,15.168
	c5.41,0,9.678-3.282,10.584-8.956h20.314c-2.134,15.331-13.609,24.185-30.992,24.185C397.467,60.753,384.838,49.03,384.838,30.336z"
	/>
<path fill="#FFFFFF" d="M453.38,59.688V1.066h19.841V21.4h19.021V1.066H512v58.621h-19.76V38.519H473.22v21.169H453.38z"/>
</svg>
