<svg id="2e58f0b2-6e01-4fa9-8646-8bdb8a40007f" data-name="Layer 1" xmlns="http://www.w3.org/2000/svg" xmlns:xlink="http://www.w3.org/1999/xlink" viewBox="0 0 135.1 51.93"><defs><clipPath id="68d05642-a6b3-47ff-92cc-a706783e0aaa" transform="translate(0 0)"><rect width="135.1" height="51.93" style="fill:none"/></clipPath></defs><title>otto_motors_light</title><g style="clip-path:url(#68d05642-a6b3-47ff-92cc-a706783e0aaa)"><path d="M18.23,5.34A12.89,12.89,0,1,1,5.34,18.23,12.91,12.91,0,0,1,18.23,5.34m0-5.34A18.23,18.23,0,1,0,36.46,18.23,18.23,18.23,0,0,0,18.23,0" transform="translate(0 0)" style="fill:#d0cfcc"/><path d="M116.87,5.34A12.89,12.89,0,1,1,104,18.23,12.91,12.91,0,0,1,116.87,5.34m0-5.34A18.23,18.23,0,1,0,135.1,18.23,18.23,18.23,0,0,0,116.87,0" transform="translate(0 0)" style="fill:#d0cfcc"/><polygon points="64.88 0.67 64.88 6.01 53.88 6.01 53.88 35.4 48.53 35.4 48.53 6.01 37.53 6.01 37.53 0.67 64.88 0.67" style="fill:#d0cfcc"/><polygon points="97.57 0.67 97.57 6.01 86.57 6.01 86.57 35.4 81.22 35.4 81.22 6.01 70.22 6.01 70.22 0.67 97.57 0.67" style="fill:#d0cfcc"/><polygon points="22.33 49.74 22.28 49.74 19.67 45.83 19.67 51.79 18.23 51.79 18.23 43.45 19.79 43.45 22.33 47.39 24.87 43.45 26.43 43.45 26.43 51.79 24.96 51.79 24.96 45.81 22.33 49.74" style="fill:#d0cfcc"/><path d="M41.52,51.93a4.31,4.31,0,1,1,4.37-4.32,4.23,4.23,0,0,1-4.37,4.32m0-7.28a2.82,2.82,0,0,0-2.81,3,2.86,2.86,0,0,0,2.83,3,2.82,2.82,0,0,0,2.81-3,2.86,2.86,0,0,0-2.83-3" transform="translate(0 0)" style="fill:#d0cfcc"/><polygon points="60.18 51.79 58.7 51.79 58.7 44.81 56.05 44.81 56.05 43.45 62.82 43.45 62.82 44.81 60.18 44.81 60.18 51.79" style="fill:#d0cfcc"/><path d="M77.81,51.93a4.31,4.31,0,1,1,4.37-4.32,4.23,4.23,0,0,1-4.37,4.32m0-7.28a2.82,2.82,0,0,0-2.81,3,2.86,2.86,0,0,0,2.83,3,2.82,2.82,0,0,0,2.81-3,2.86,2.86,0,0,0-2.84-3" transform="translate(0 0)" style="fill:#d0cfcc"/><path d="M98.27,51.79l-2-2.91H94.39v2.91H92.92V43.45h3.72c1.92,0,3.1,1,3.1,2.64a2.5,2.5,0,0,1-2,2.54L100,51.79H98.27Zm-1.75-7H94.39v2.8h2.14a1.48,1.48,0,0,0,1.72-1.41c0-.92-0.64-1.39-1.73-1.39" transform="translate(0 0)" style="fill:#d0cfcc"/><path d="M114.19,47c1.76,0.43,2.68,1.06,2.68,2.45,0,1.57-1.23,2.5-3,2.5a5.13,5.13,0,0,1-3.48-1.33l0.88-1a3.84,3.84,0,0,0,2.63,1.08,1.23,1.23,0,0,0,1.48-1.06c0-.61-0.33-0.93-1.88-1.29-1.77-.43-2.77-1-2.77-2.5s1.19-2.43,2.85-2.43a4.62,4.62,0,0,1,3,1l-0.78,1.11a3.8,3.8,0,0,0-2.26-.86,1.15,1.15,0,0,0-1.36,1c0,0.66.38,0.94,2,1.32" transform="translate(0 0)" style="fill:#d0cfcc"/></g></svg>