<?xml version="1.0" encoding="UTF-8"?>
<svg width="258px" height="44px" viewBox="0 0 258 44" version="1.1" xmlns="http://www.w3.org/2000/svg" xmlns:xlink="http://www.w3.org/1999/xlink">
    <!-- Generator: Sketch 49.2 (51160) - http://www.bohemiancoding.com/sketch -->
    <title>Workshop Lockup</title>
    <desc>Created with Sketch.</desc>
    <defs></defs>
    <g id="Event-Poster" stroke="none" stroke-width="1" fill="none" fill-rule="evenodd">
        <g id="Workshop-Lockup">
            <g id="Group">
                <path d="M5.13510103,17.2727273 L6.31407831,17.2727273 C7.20486559,17.2727273 7.99957566,17.1342005 8.69823236,16.8571429 C9.39688905,16.5800852 9.98637179,16.1991366 10.4666983,15.7142857 C10.9470247,15.2294348 11.313814,14.653683 11.5670771,13.987013 C11.8203401,13.320343 11.9469697,12.5887486 11.9469697,11.7922078 C11.9469697,11.0129831 11.8159736,10.2857177 11.5539773,9.61038961 C11.2919811,8.93506156 10.9208253,8.35498078 10.4404988,7.87012987 C9.9601723,7.38527896 9.37068956,7.00433039 8.67203286,6.72727273 C7.97337617,6.45021506 7.18739917,6.31168831 6.31407831,6.31168831 L5.13510103,6.31168831 L5.13510103,17.2727273 Z M0,2 L7.59785356,2 C8.9427677,2 10.2046974,2.26839558 11.3836806,2.80519481 C12.5626638,3.34199403 13.5931669,4.0562726 14.475221,4.94805195 C15.3572751,5.8398313 16.0515548,6.87878195 16.5580809,8.06493506 C17.064607,9.25108818 17.3178662,10.4935 17.3178662,11.7922078 C17.3178662,13.0735995 17.0689735,14.3073534 16.5711806,15.4935065 C16.0733877,16.6796596 15.3834746,17.7229392 14.5014205,18.6233766 C13.6193664,19.523814 12.5888633,20.2424216 11.4098801,20.7792208 C10.2308969,21.31602 8.96023412,21.5844156 7.59785356,21.5844156 L0,21.5844156 L0,2 Z M28.4002526,12.987013 C28.2430548,12.329001 27.9199309,11.8008678 27.4308713,11.4025974 C26.9418116,11.004327 26.3479623,10.8051948 25.6493056,10.8051948 C24.9157161,10.8051948 24.3175002,10.9956691 23.8546402,11.3766234 C23.3917801,11.7575777 23.099222,12.2943688 22.9769571,12.987013 L28.4002526,12.987013 Z M22.8459596,15.7142857 C22.8459596,17.7402699 23.8065982,18.7532468 25.7279041,18.7532468 C26.7584227,18.7532468 27.5356666,18.3376665 28.0596591,17.5064935 L32.6445708,17.5064935 C31.7188506,20.5541278 29.4045851,22.0779221 25.7017046,22.0779221 C24.5663875,22.0779221 23.5271512,21.9090926 22.5839647,21.5714286 C21.6407781,21.2337645 20.8329684,20.7532499 20.1605114,20.1298701 C19.4880543,19.5064904 18.9684362,18.7619091 18.6016414,17.8961039 C18.2348467,17.0302987 18.051452,16.0606114 18.051452,14.987013 C18.051452,13.8787823 18.2261136,12.8787923 18.5754419,11.987013 C18.9247703,11.0952336 19.4225557,10.3376655 20.0688131,9.71428571 C20.7150706,9.09090597 21.496681,8.6103913 22.413668,8.27272727 C23.3306549,7.93506325 24.3655246,7.76623377 25.5183081,7.76623377 C26.6536252,7.76623377 27.6753953,7.93506325 28.583649,8.27272727 C29.4919027,8.6103913 30.2604136,9.0995639 30.8892046,9.74025974 C31.5179956,10.3809556 31.9983149,11.1644975 32.3301768,12.0909091 C32.6620388,13.0173206 32.8279672,14.0606003 32.8279672,15.2207792 L32.8279672,15.7142857 L22.8459596,15.7142857 Z M42.8623738,11.6883117 C41.9890529,11.238093 41.1332113,11.012987 40.2948233,11.012987 C39.8581628,11.012987 39.5044732,11.0995662 39.2337437,11.2727273 C38.9630142,11.4458883 38.8276515,11.6796522 38.8276515,11.974026 C38.8276515,12.1298709 38.8494842,12.2554108 38.8931503,12.3506494 C38.9368163,12.4458879 39.0328802,12.5367961 39.1813447,12.6233766 C39.3298093,12.7099571 39.5481362,12.7878784 39.8363321,12.8571429 C40.124528,12.9264073 40.5044169,13.0129865 40.9760101,13.1168831 C42.2859914,13.3766247 43.2640961,13.8398235 43.9103536,14.5064935 C44.556611,15.1731635 44.8797349,16.0259688 44.8797349,17.0649351 C44.8797349,17.8441597 44.7225395,18.5454514 44.408144,19.1688312 C44.0937485,19.7922109 43.6570946,20.3160152 43.0981692,20.7402597 C42.5392439,21.1645043 41.8667969,21.4935053 41.0808081,21.7272727 C40.2948193,21.9610401 39.4302446,22.0779221 38.4870581,22.0779221 C36.6705507,22.0779221 34.8802698,21.5671047 33.1161616,20.5454545 L34.8453283,17.2207792 C36.172776,18.1212166 37.4303392,18.5714286 38.6180556,18.5714286 C39.054716,18.5714286 39.4127722,18.4761914 39.6922349,18.2857143 C39.9716976,18.0952371 40.1114268,17.8528153 40.1114268,17.5584416 C40.1114268,17.3852805 40.0895941,17.2424248 40.0459281,17.1298701 C40.002262,17.0173155 39.9105647,16.9134204 39.7708334,16.8181818 C39.631102,16.7229432 39.4258747,16.636364 39.1551452,16.5584416 C38.8844158,16.4805191 38.5307261,16.3982688 38.0940657,16.3116883 C36.6268866,16.0173145 35.60075,15.5800895 35.015625,15 C34.4305,14.4199105 34.1379419,13.6190527 34.1379419,12.5974026 C34.1379419,11.8528101 34.2776712,11.1818212 34.5571338,10.5844156 C34.8365965,9.98701 35.2383181,9.48052156 35.7623106,9.06493506 C36.2863031,8.64934857 36.9194513,8.32900545 37.661774,8.1038961 C38.4040967,7.87878675 39.2293726,7.76623377 40.1376263,7.76623377 C41.6222718,7.76623377 43.0632296,8.05194519 44.460543,8.62337662 L42.8623738,11.6883117 Z M50.4602273,8.25974026 L50.4602273,43 L45.7181187,43 L45.7181187,8.25974026 L50.4602273,8.25974026 Z M56.5385101,14.8571429 C56.5385101,15.2900455 56.6171078,15.6926388 56.7743055,16.0649351 C56.9315033,16.4372313 57.1454637,16.7619034 57.4161931,17.038961 C57.6869226,17.3160187 58.0100465,17.5324668 58.3855745,17.6883117 C58.7611024,17.8441566 59.1671906,17.9220779 59.603851,17.9220779 C60.023045,17.9220779 60.4204,17.8441566 60.795928,17.6883117 C61.171456,17.5324668 61.4945799,17.3160187 61.7653093,17.038961 C62.0360388,16.7619034 62.2543657,16.4372313 62.4202967,16.0649351 C62.5862277,15.6926388 62.6691919,15.2987034 62.6691919,14.8831169 C62.6691919,14.4502143 62.5862277,14.0519499 62.4202967,13.6883117 C62.2543657,13.3246735 62.0316723,13.0043304 61.7522096,12.7272727 C61.4727469,12.4502151 61.1452565,12.233767 60.7697285,12.0779221 C60.3942005,11.9220771 60.0055786,11.8441558 59.603851,11.8441558 C59.184657,11.8441558 58.7916685,11.9264061 58.4248737,12.0909091 C58.0580789,12.2554121 57.7349551,12.4718601 57.4554924,12.7402597 C57.1760297,13.0086594 56.9533362,13.3246735 56.7874053,13.6883117 C56.6214743,14.0519499 56.5385101,14.4415564 56.5385101,14.8571429 Z M67.1755051,8.25974026 L67.1755051,20.6753247 C67.1755051,21.4199171 67.1318397,22.0865771 67.0445076,22.6753247 C66.9571755,23.2640722 66.8349124,23.7835475 66.6777146,24.2337662 C66.4681176,24.8051977 66.1406272,25.3376599 65.6952336,25.8311688 C65.2498399,26.3246778 64.7127557,26.7532449 64.0839646,27.1168831 C63.4551736,27.4805213 62.7434278,27.7662327 61.9487058,27.974026 C61.1539838,28.1818192 60.2937756,28.2857143 59.3680555,28.2857143 C58.3200705,28.2857143 57.3594319,28.1558455 56.4861111,27.8961039 C55.6127902,27.6363623 54.8486459,27.2770586 54.1936553,26.8181818 C53.5386646,26.3593051 53.0015803,25.8225139 52.5823863,25.2077922 C52.1631923,24.5930705 51.8837338,23.9220816 51.7440025,23.1948052 L57.0886995,23.1948052 C57.4205614,24.0779265 58.1716061,24.5194805 59.341856,24.5194805 C60.3374418,24.5194805 61.1015861,24.242427 61.6343119,23.6883117 C62.1670376,23.1341964 62.4333964,22.3636413 62.4333964,21.3766234 L62.4333964,20.1038961 C62.0840681,20.4329021 61.7478446,20.7056266 61.4247159,20.9220779 C61.1015872,21.1385292 60.7740968,21.3160166 60.4422348,21.4545455 C60.1103729,21.5930743 59.7610498,21.6926404 59.394255,21.7532468 C59.0274603,21.8138531 58.6257387,21.8441558 58.1890783,21.8441558 C57.2284253,21.8441558 56.3463845,21.6796553 55.5429293,21.3506494 C54.7394741,21.0216434 54.0451944,20.5627735 53.4600694,19.974026 C52.8749444,19.3852784 52.4208244,18.6796578 52.0976957,17.8571429 C51.7745669,17.0346279 51.613005,16.1212171 51.613005,15.1168831 C51.613005,14.095233 51.7876665,13.1471905 52.1369949,12.2727273 C52.4863232,11.398264 52.962276,10.6363669 53.5648674,9.98701299 C54.1674588,9.33765909 54.8835711,8.82684169 55.713226,8.45454545 C56.5428808,8.08224922 57.4467543,7.8961039 58.4248737,7.8961039 C60.0143177,7.8961039 61.3504786,8.4848426 62.4333964,9.66233766 L62.4333964,8.25974026 L67.1755051,8.25974026 Z M68.8260732,8.25974026 L73.5681818,8.25974026 L73.5681818,9.94805195 C74.2144392,9.16882727 74.8694201,8.64502299 75.5331439,8.37662338 C76.1968678,8.10822377 76.9741117,7.97402597 77.864899,7.97402597 C78.8080855,7.97402597 79.6158952,8.12553961 80.2883523,8.42857143 C80.9608093,8.73160325 81.5328259,9.16017039 82.0044192,9.71428571 C82.3886804,10.1645044 82.6506727,10.6666639 82.790404,11.2207792 C82.9301354,11.7748945 83,12.4069229 83,13.1168831 L83,26.1298701 L78.2578914,26.1298701 L78.2578914,14.8571429 C78.2578914,14.1991309 78.2098595,13.6666687 78.1137942,13.2597403 C78.0177289,12.8528118 77.8474339,12.5281397 77.602904,12.2857143 C77.393307,12.077921 77.1575139,11.9307364 76.8955177,11.8441558 C76.6335214,11.7575753 76.3540629,11.7142857 76.0571338,11.7142857 C75.2536786,11.7142857 74.6379966,11.9523786 74.2100694,12.4285714 C73.7821422,12.9047643 73.5681818,13.5844112 73.5681818,14.4675325 L73.5681818,21.5844156 L68.8260732,21.5844156 L68.8260732,8.25974026 Z" id="Design" fill="#000000"></path>
                <path d="M44.0675884,29.8648649 C42.8837627,28.3693619 41.4214117,27.6216216 39.6804916,27.6216216 C38.9144867,27.6216216 38.2050724,27.7657643 37.5522274,28.0540541 C36.8993823,28.3423438 36.337944,28.7342318 35.8678956,29.2297297 C35.3978471,29.7252277 35.0279072,30.3153119 34.7580645,31 C34.4882219,31.6846881 34.3533026,32.4234195 34.3533026,33.2162162 C34.3533026,34.0270311 34.4882219,34.7747714 34.7580645,35.4594595 C35.0279072,36.1441476 35.4021994,36.7387362 35.8809524,37.2432432 C36.3597054,37.7477503 36.9211438,38.1441427 37.5652842,38.4324324 C38.2094247,38.7207222 38.9057823,38.8648649 39.6543779,38.8648649 C41.2908428,38.8648649 42.7618983,38.1441514 44.0675884,36.7027027 L44.0675884,42.972973 L43.545315,43.1621622 C42.7619009,43.4504519 42.0307254,43.6621615 41.3517666,43.7972973 C40.6728077,43.9324331 40.0025635,44 39.3410139,44 C37.9830962,44 36.6817779,43.7342369 35.43702,43.2027027 C34.1922621,42.6711685 33.0954989,41.9234282 32.1466974,40.9594595 C31.1978959,39.9954907 30.4362548,38.851358 29.8617512,37.527027 C29.2872475,36.2026961 29,34.7567646 29,33.1891892 C29,31.6216138 29.2828953,30.1846912 29.8486943,28.8783784 C30.4144934,27.5720655 31.1717823,26.4459507 32.1205837,25.5 C33.0693852,24.5540493 34.1705007,23.815318 35.4239632,23.2837838 C36.6774257,22.7522496 37.9918006,22.4864865 39.3671275,22.4864865 C40.1505416,22.4864865 40.9208872,22.5720712 41.6781875,22.7432432 C42.4354877,22.9144153 43.2319467,23.1801784 44.0675884,23.5405405 L44.0675884,29.8648649 Z M50.0215054,21 L50.0215054,31.3243243 C50.6656458,30.5135095 51.3184811,29.9684699 51.9800307,29.6891892 C52.6415804,29.4099085 53.4162782,29.2702703 54.3041475,29.2702703 C55.99284,29.2702703 57.2680449,29.7522474 58.1298004,30.7162162 C58.9915558,31.680185 59.4224271,32.9819738 59.4224271,34.6216216 L59.4224271,43.4324324 L54.6958526,43.4324324 L54.6958526,36.4324324 C54.6958526,35.7297262 54.6436257,35.1621643 54.5391705,34.7297297 C54.4347153,34.2972951 54.2606259,33.9639651 54.0168971,33.7297297 C53.5990763,33.3513495 53.094217,33.1621622 52.5023042,33.1621622 C51.7014809,33.1621622 51.0878158,33.4099074 50.6612903,33.9054054 C50.2347649,34.4009034 50.0215054,35.1081035 50.0215054,36.027027 L50.0215054,43.4324324 L50.0215054,21 Z M65.4546851,36.4594595 C65.4546851,36.9099122 65.5330253,37.3288269 65.6897082,37.7162162 C65.846391,38.1036055 66.0596505,38.44144 66.3294931,38.7297297 C66.5993357,39.0180195 66.9214011,39.2432424 67.2956989,39.4054054 C67.6699968,39.5675684 68.0747546,39.6486486 68.5099847,39.6486486 C68.9278055,39.6486486 69.3238589,39.5675684 69.6981567,39.4054054 C70.0724545,39.2432424 70.3945199,39.0180195 70.6643625,38.7297297 C70.9342052,38.44144 71.1518169,38.10811 71.3172043,37.7297297 C71.4825917,37.3513495 71.5652842,36.9459481 71.5652842,36.5135135 C71.5652842,36.0810789 71.4825917,35.6711731 71.3172043,35.2837838 C71.1518169,34.8963945 70.9342052,34.55856 70.6643625,34.2702703 C70.3945199,33.9819805 70.0724545,33.7567576 69.6981567,33.5945946 C69.3238589,33.4324316 68.9278055,33.3513514 68.5099847,33.3513514 C68.0747546,33.3513514 67.6699968,33.4324316 67.2956989,33.5945946 C66.9214011,33.7567576 66.5993357,33.9819805 66.3294931,34.2702703 C66.0596505,34.55856 65.846391,34.8873855 65.6897082,35.2567568 C65.5330253,35.626128 65.4546851,36.0270249 65.4546851,36.4594595 Z M70.7557604,29.5675676 L75.5084486,29.5675676 L75.5084486,43.4324324 L70.7557604,43.4324324 L70.7557604,41.8918919 C69.7460267,43.2072138 68.3794249,43.8648649 66.655914,43.8648649 C65.6809987,43.8648649 64.7844383,43.680182 63.9662058,43.3108108 C63.1479734,42.9414396 62.4342068,42.4234268 61.8248848,41.7567568 C61.2155627,41.0900868 60.7411691,40.3063108 60.4016897,39.4054054 C60.0622103,38.5045 59.8924731,37.5225278 59.8924731,36.4594595 C59.8924731,35.4684635 60.057858,34.5270315 60.3886329,33.6351351 C60.7194077,32.7432388 61.1807446,31.9639673 61.7726574,31.2972973 C62.3645703,30.6306273 63.0696324,30.1036055 63.8878648,29.7162162 C64.7060973,29.3288269 65.6113622,29.1351351 66.6036866,29.1351351 C68.27497,29.1351351 69.6589807,29.7387327 70.7557604,30.9459459 L70.7557604,29.5675676 Z M82.993346,33.6486486 L82.993346,43.4324324 L78.2667715,43.4324324 L78.2667715,33.6486486 L76.6999512,33.6486486 L76.6999512,29.5675676 L78.2667715,29.5675676 L78.2667715,25.4054054 L82.993346,25.4054054 L82.993346,29.5675676 L85.6830541,29.5675676 L85.6830541,33.6486486 L82.993346,33.6486486 Z M94.9892473,33.1351351 C94.1187872,32.6666643 93.2657492,32.4324324 92.4301075,32.4324324 C91.9948775,32.4324324 91.6423464,32.5225216 91.3725038,32.7027027 C91.1026612,32.8828838 90.9677419,33.1261246 90.9677419,33.4324324 C90.9677419,33.5945954 90.9895031,33.7252247 91.0330261,33.8243243 C91.0765491,33.9234239 91.1722983,34.0180176 91.3202765,34.1081081 C91.4682547,34.1981986 91.6858664,34.2792789 91.9731183,34.3513514 C92.2603701,34.4234238 92.6390145,34.513513 93.109063,34.6216216 C94.4147531,34.8918932 95.3896537,35.3738704 96.0337942,36.0675676 C96.6779346,36.7612647 97,37.6486432 97,38.7297297 C97,39.5405446 96.8433195,40.270267 96.5299539,40.9189189 C96.2165883,41.5675708 95.7813648,42.1126104 95.2242703,42.5540541 C94.6671759,42.9954977 93.9969317,43.3378366 93.2135177,43.5810811 C92.4301036,43.8243255 91.5683611,43.9459459 90.6282642,43.9459459 C88.8177073,43.9459459 87.0332909,43.4144197 85.2749616,42.3513514 L86.9984639,38.8918919 C88.3215632,39.8288335 89.5750069,40.2972973 90.7588325,40.2972973 C91.1940626,40.2972973 91.5509458,40.1981992 91.8294931,40 C92.1080403,39.8018008 92.2473118,39.5495511 92.2473118,39.2432432 C92.2473118,39.0630622 92.2255506,38.914415 92.1820276,38.7972973 C92.1385046,38.6801796 92.0471077,38.5720726 91.9078341,38.472973 C91.7685605,38.3738734 91.5640054,38.2837842 91.2941628,38.2027027 C91.0243202,38.1216212 90.6717891,38.0360365 90.2365591,37.9459459 C88.7741862,37.6396381 87.751411,37.1846877 87.1682027,36.5810811 C86.5849945,35.9774745 86.2933947,35.1441495 86.2933947,34.0810811 C86.2933947,33.3063024 86.4326663,32.6081112 86.7112135,31.9864865 C86.9897607,31.3648618 87.3901663,30.83784 87.9124424,30.4054054 C88.4347184,29.9729708 89.0657925,29.6396408 89.8056835,29.4054054 C90.5455746,29.17117 91.368147,29.0540541 92.2734255,29.0540541 C93.7532076,29.0540541 95.1894452,29.3513484 96.5821813,29.9459459 L94.9892473,33.1351351 Z" id="Chats" fill="#000000"></path>
                <path d="M45,2.5 C45,2.15686103 45.0653588,1.83415184 45.1960784,1.53186275 C45.326798,1.22957365 45.5065348,0.964053431 45.7352941,0.735294118 C45.9640534,0.506534804 46.2295737,0.326798039 46.5318627,0.196078431 C46.8341518,0.0653588235 47.156861,0 47.5,0 C47.843139,0 48.1658482,0.0653588235 48.4681373,0.196078431 C48.7704263,0.326798039 49.0359466,0.506534804 49.2647059,0.735294118 C49.4934652,0.964053431 49.673202,1.22957365 49.8039216,1.53186275 C49.9346412,1.83415184 50,2.15686103 50,2.5 C50,2.84313897 49.9346412,3.16584816 49.8039216,3.46813725 C49.673202,3.77042635 49.4934652,4.03594657 49.2647059,4.26470588 C49.0359466,4.4934652 48.7704263,4.67320196 48.4681373,4.80392157 C48.1658482,4.93464118 47.843139,5 47.5,5 C47.156861,5 46.8341518,4.93464118 46.5318627,4.80392157 C46.2295737,4.67320196 45.9640534,4.4934652 45.7352941,4.26470588 C45.5065348,4.03594657 45.326798,3.77042635 45.1960784,3.46813725 C45.0653588,3.16584816 45,2.84313897 45,2.5 Z" id="Path" fill="#FF9F0C"></path>
            </g>
            <path d="M111.5,3.5 L111.5,41.5131556" id="Line" stroke="#1E1E26" stroke-width="2" stroke-linecap="square"></path>
            <text id="WORKSHOPS" font-family="SFProText-Regular, SF Pro Text" font-size="20" font-weight="normal" letter-spacing="0.555555582" fill="#1E1E26">
                <tspan x="126" y="29">WORKSHOPS</tspan>
            </text>
        </g>
    </g>
</svg>